PathFileType	4	(X/Y/Z)	/Users/itak/Documents/Research/Walk-IL/dataset/trc/00464_00167.trc
DataRate	CameraRate	NumFrames	NumMarkers	Units	OrigDataRate	OrigDataStartFrame	OrigNumFrames
100.000000	100.000000	4	53	mm	100.000000	347	556
Frame#	Time	RPSI			LPSI			L3			STRN			T10			C7			CLAV			RBAK			LBAK			LSHO			LUPA			LAEL			LAOL			LWTS			LWPS			LFRA			LIFD			LHPS			LHTS			RSHO			RUPA			RAEL			RAOL			RWTS			RWPS			RFRA			RIFD			RHTS			RHPS			RBHD			LFHD			RFHD			LBHD			LHIP			RHIP			RASI			LASI			LKNE			LTHI			LANK			LTIP			LTOE			LMT1			LMT5			LHEE			RKNE			RTHI			RANK			RTIP			RTOE			RMT1			RMT5			RHEE			
		X1	Y1	Z1	X2	Y2	Z2	X3	Y3	Z3	X4	Y4	Z4	X5	Y5	Z5	X6	Y6	Z6	X7	Y7	Z7	X8	Y8	Z8	X9	Y9	Z9	X10	Y10	Z10	X11	Y11	Z11	X12	Y12	Z12	X13	Y13	Z13	X14	Y14	Z14	X15	Y15	Z15	X16	Y16	Z16	X17	Y17	Z17	X18	Y18	Z18	X19	Y19	Z19	X20	Y20	Z20	X21	Y21	Z21	X22	Y22	Z22	X23	Y23	Z23	X24	Y24	Z24	X25	Y25	Z25	X26	Y26	Z26	X27	Y27	Z27	X28	Y28	Z28	X29	Y29	Z29	X30	Y30	Z30	X31	Y31	Z31	X32	Y32	Z32	X33	Y33	Z33	X34	Y34	Z34	X35	Y35	Z35	X36	Y36	Z36	X37	Y37	Z37	X38	Y38	Z38	X39	Y39	Z39	X40	Y40	Z40	X41	Y41	Z41	X42	Y42	Z42	X43	Y43	Z43	X44	Y44	Z44	X45	Y45	Z45	X46	Y46	Z46	X47	Y47	Z47	X48	Y48	Z48	X49	Y49	Z49	X50	Y50	Z50	X51	Y51	Z51	X52	Y52	Z52	X53	Y53	Z53	

348	3.47	-61.252685546875	935.749755859375	-549.46630859375	63.03060913085938	939.9174194335938	-615.5277709960938	3.602928161621094	1033.846801757812	-569.2369384765625	113.7970352172852	1228.718872070312	-313.2269592285156	-2.293663740158081	1157.069213867188	-580.955322265625	-3.449134111404419	1422.346435546875	-502.1650695800781	91.07843017578125	1341.723388671875	-342.7451477050781	-103.5420074462891	1295.51513671875	-529.7578125	75.00521087646484	1386.300537109375	-577.2902221679688	188.2709045410156	1415.278442382812	-515.9816284179688	282.1496887207031	1307.384521484375	-569.9150390625	356.9902648925781	1105.074340820312	-566.2271728515625	267.367919921875	1070.80029296875	-604.4607543945312	392.6455993652344	922.6866455078125	-450.4232177734375	421.0198974609375	903.573974609375	-516.640869140625	390.3120727539062	1024.526000976562	-541.6401977539062	445.3776245117188	763.6249389648438	-426.2720031738281	446.5082092285156	832.6163330078125	-498.7205200195312	434.3862609863281	847.75244140625	-429.2755432128906	-122.2689361572266	1378.571655273438	-381.1699829101562	-193.9149017333984	1310.96875	-378.2015686035156	-230.31396484375	1024.234008789062	-381.6908874511719	-206.7924041748047	1016.417358398438	-445.2616577148438	-149.6097412109375	810.1220092773438	-332.3111572265625	-227.2558441162109	802.335205078125	-374.0819091796875	-236.9871215820312	965.321044921875	-382.4667053222656	-155.4962768554688	654.8568115234375	-357.2213134765625	-155.8096160888672	710.0267944335938	-331.6438903808594	-217.2332000732422	714.1990966796875	-376.5754699707031	-58.61011505126953	1613.249145507812	-372.1043701171875	139.3514251708984	1636.195068359375	-317.3550720214844	21.75745964050293	1625.917602539062	-261.0963134765625	92.56268310546875	1631.924438476562	-462.9754028320312	226.9940185546875	838.7406616210938	-569.224365234375	-117.482177734375	841.17724609375	-366.6707458496094	-12.02402400970459	890.6278076171875	-316.7542419433594	214.6885833740234	873.9444580078125	-438.3758850097656	188.9916534423828	435.5254211425781	-641.04833984375	228.224609375	581.0381469726562	-585.8186645507812	0.4178630411624908	139.0839233398438	-885.2120361328125	144.5771789550781	317.5526733398438	-736.10791015625	146.9638519287109	38.88662338256836	-749.3773803710938	75.97878265380859	49.91593170166016	-745.0183715820312	124.7510299682617	59.79693222045898	-848.751953125	-66.47311401367188	150.9867401123047	-844.8688354492188	-14.81889057159424	457.131591796875	-295.8950500488281	-85.010009765625	716.5126953125	-302.1185302734375	36.12067413330078	37.86764907836914	-290.330078125	-0.4562440812587738	317.7008972167969	-272.3256225585938	142.4290771484375	45.40180969238281	-97.12448120117188	158.7313385009766	51.75492477416992	-167.2282867431641	51.26132583618164	44.24837112426758	-156.7861785888672	64.51358032226562	28.69600868225098	-364.7738952636719	
349	3.48	-58.04610443115234	937.6824951171875	-541.7904052734375	67.20748901367188	941.70361328125	-606.130615234375	6.778816223144531	1035.539306640625	-560.6785278320312	113.8018035888672	1231.272705078125	-304.2448120117188	0.8183116316795349	1158.621704101562	-573.1900024414062	-1.360747694969177	1424.117431640625	-495.1769104003906	91.44443511962891	1344.155151367188	-334.3733215332031	-100.9194641113281	1297.066772460938	-523.1597290039062	77.94563293457031	1387.945678710938	-569.2355346679688	190.5024719238281	1417.33251953125	-506.6824340820312	284.4134216308594	1309.02001953125	-559.59228515625	356.0830383300781	1105.177734375	-555.5565185546875	266.0621643066406	1072.160888671875	-593.7713623046875	388.4487915039062	922.8502807617188	-438.1360473632812	417.1522216796875	902.9630126953125	-504.0169372558594	388.2242736816406	1024.333740234375	-530.26171875	438.0137634277344	762.7498168945312	-413.129150390625	441.123046875	831.5892333984375	-485.6319580078125	428.5709533691406	847.0509033203125	-416.3114929199219	-121.3889007568359	1381.001953125	-375.2701110839844	-193.1704406738281	1313.598510742188	-372.6578979492188	-228.6623382568359	1026.385864257812	-375.4393920898438	-204.5467376708984	1018.296264648438	-438.7448425292969	-146.9632110595703	813.0316162109375	-323.6762390136719	-224.157470703125	804.5033569335938	-366.3410339355469	-234.9600372314453	967.4221801757812	-375.8454895019531	-151.0953979492188	657.606201171875	-348.2760009765625	-152.0646057128906	712.913818359375	-322.6330261230469	-213.2303314208984	716.3659057617188	-368.3185424804688	-58.06705856323242	1614.973510742188	-365.1765441894531	139.6281890869141	1638.227661132812	-309.6595458984375	21.82639122009277	1627.897827148438	-253.8659515380859	93.44730377197266	1633.732666015625	-455.4548034667969	230.4369354248047	840.052490234375	-556.9379272460938	-116.6093215942383	842.59130859375	-359.8200988769531	-12.17925071716309	892.2310791015625	-308.3880920410156	216.2759552001953	876.1094360351562	-426.6550903320312	198.7651519775391	435.6362915039062	-625.9802856445312	235.8659362792969	581.8681030273438	-571.1077880859375	5.983089447021484	148.9036865234375	-877.9002685546875	152.9372100830078	320.0853881835938	-724.0499267578125	147.2855377197266	38.60911560058594	-749.34228515625	77.88688659667969	50.60337829589844	-742.9244995117188	127.0449981689453	63.76707077026367	-846.0224609375	-60.11249542236328	161.4508056640625	-836.7425537109375	-14.74888515472412	457.7556762695312	-291.5128479003906	-84.61814117431641	717.7678833007812	-295.0022888183594	35.98943328857422	37.75398254394531	-290.306884765625	-0.4597364664077759	317.6334533691406	-269.3779602050781	142.4889221191406	45.08877563476562	-97.08124542236328	158.5077514648438	51.82273101806641	-167.1034545898438	50.86150741577148	44.09453964233398	-156.603759765625	64.45594024658203	28.71682357788086	-364.7218322753906	
350	3.49	-55.00214767456055	939.2955932617188	-534.1181030273438	71.14100646972656	943.213134765625	-596.8512573242188	9.717741966247559	1037.023315429688	-552.1422119140625	113.7324905395508	1233.620483398438	-295.3413391113281	3.832048892974854	1159.986206054688	-565.3076171875	0.7270199656486511	1425.718017578125	-488.210205078125	91.77462005615234	1346.40478515625	-326.0509948730469	-98.33602142333984	1298.497192382812	-516.5640258789062	80.89460754394531	1389.38720703125	-561.1365356445312	192.73876953125	1419.179443359375	-497.3566589355469	286.7311401367188	1310.48974609375	-549.1710815429688	355.3078918457031	1105.169067382812	-544.8258666992188	264.9832458496094	1073.410888671875	-583.2301025390625	384.1898803710938	922.8469848632812	-425.8845825195312	413.3503112792969	902.253662109375	-491.3829345703125	386.2374572753906	1024.032836914062	-518.8441772460938	430.3280639648438	761.64306640625	-400.1946411132812	435.6552429199219	830.3982543945312	-472.600341796875	422.5248107910156	846.1038208007812	-403.4277038574219	-120.4846572875977	1383.351806640625	-369.4287414550781	-192.4721069335938	1316.209716796875	-367.1783752441406	-227.2367553710938	1028.4853515625	-369.1509704589844	-202.5982818603516	1020.060241699219	-432.1977844238281	-144.3574829101562	816.0689697265625	-314.7308044433594	-221.0614166259766	806.6002807617188	-358.2521362304688	-233.1450653076172	969.4696044921875	-369.0861206054688	-146.5019378662109	660.4917602539062	-338.791748046875	-148.1513824462891	715.8765869140625	-313.365478515625	-209.1192321777344	718.4949340820312	-359.5948181152344	-57.50672912597656	1616.531494140625	-358.4175109863281	139.8987426757812	1640.167846679688	-302.0802917480469	21.85675811767578	1629.80029296875	-246.7974243164062	94.37963104248047	1635.346557617188	-448.0697937011719	233.773193359375	841.2390747070312	-544.7210083007812	-115.7437973022461	843.7150268554688	-352.9162902832031	-12.39602565765381	893.450927734375	-300.0786437988281	217.6703796386719	878.1422729492188	-415.1261291503906	208.7472686767578	435.55224609375	-610.115478515625	243.6779327392578	582.5419921875	-555.9637451171875	12.26306343078613	158.8844757080078	-869.68603515625	161.7215881347656	322.4364929199219	-711.106201171875	147.8912963867188	38.22127532958984	-748.6168823242188	80.03757476806641	51.53652572631836	-740.2734985351562	129.7940216064453	68.13445281982422	-842.5037841796875	-53.06967926025391	171.9457244873047	-827.7576293945312	-14.78117942810059	458.0787658691406	-287.5089721679688	-84.42854309082031	718.746337890625	-287.7381896972656	35.94698333740234	37.68237686157227	-290.3034973144531	-0.4694432318210602	317.4525756835938	-266.6936950683594	142.5005493164062	44.89282608032227	-97.01137542724609	158.3392791748047	51.87302780151367	-166.9684143066406	50.51015090942383	43.94628524780273	-156.4513549804688	64.48310089111328	28.77239990234375	-364.695068359375	
351	3.5	-52.10775756835938	940.5770263671875	-526.4891967773438	74.84493255615234	944.3335571289062	-587.751953125	12.43433094024658	1038.272583007812	-543.6607666015625	113.6082305908203	1235.696533203125	-286.5340881347656	6.719038486480713	1161.136352539062	-557.2986450195312	2.822978496551514	1427.108520507812	-481.2647094726562	92.08716583251953	1348.410034179688	-317.7888488769531	-95.80567932128906	1299.765014648438	-509.9877319335938	83.84219360351562	1390.585327148438	-553.02001953125	194.9802856445312	1420.75146484375	-488.0412902832031	289.0755004882812	1311.693115234375	-538.7055053710938	354.7188720703125	1104.9931640625	-534.0091552734375	264.2302856445312	1074.45263671875	-572.8607788085938	379.9067687988281	922.646240234375	-413.6601257324219	409.7039184570312	901.4238891601562	-478.6955261230469	384.4136657714844	1023.577697753906	-507.3499450683594	422.4208984375	760.3244018554688	-387.3884582519531	430.2254638671875	829.0380859375	-459.5574340820312	416.2992553710938	844.9226684570312	-390.5792846679688	-119.5532379150391	1385.546752929688	-363.6380004882812	-191.8094635009766	1318.705322265625	-361.7652587890625	-226.0368347167969	1030.455444335938	-362.8137512207031	-200.9528656005859	1021.628540039062	-425.6125793457031	-141.7979278564453	819.1624755859375	-305.5066528320312	-218.0138092041016	808.57177734375	-349.7448425292969	-231.5496520996094	971.392333984375	-362.172607421875	-141.7833404541016	663.45166015625	-328.7637939453125	-144.1360626220703	718.8856201171875	-303.7874755859375	-204.9758453369141	720.5306396484375	-350.3679809570312	-56.92804718017578	1617.902221679688	-351.8268127441406	140.1723785400391	1641.988891601562	-294.6237487792969	21.86215591430664	1631.600341796875	-239.8948059082031	95.36408233642578	1636.740478515625	-440.8256530761719	237.0448760986328	842.2329711914062	-532.6494140625	-114.8696594238281	844.5673217773438	-346.0177307128906	-12.63932704925537	894.2868041992188	-291.8679504394531	218.8967590332031	879.968017578125	-403.8478698730469	218.7750396728516	435.2793273925781	-593.5220947265625	251.5567321777344	583.0172119140625	-540.4324340820312	19.32733535766602	168.8296813964844	-860.634521484375	170.8304443359375	324.56884765625	-697.3173217773438	148.8930053710938	37.72254180908203	-746.7219848632812	82.46072387695312	52.83434677124023	-736.7908325195312	133.1365661621094	72.82761383056641	-837.878173828125	-45.35658264160156	182.3263702392578	-818.114990234375	-14.89926338195801	458.1289978027344	-283.87158203125	-84.40693664550781	719.433837890625	-280.374755859375	36.00637435913086	37.66422653198242	-290.3198547363281	-0.4817242622375488	317.17041015625	-264.3045654296875	142.5017547607422	44.76242828369141	-96.91590118408203	158.2447662353516	51.87958908081055	-166.8298950195312	50.23013305664062	43.81257247924805	-156.3287353515625	64.59588623046875	28.86756706237793	-364.6943359375	
